<svg width="500" height="500" viewBox="0 0 500 500" fill="none" xmlns="http://www.w3.org/2000/svg">
<rect width="500" height="500" fill="url(#paint0_linear)"/>
<g clip-path="url(#clip0)">
<path d="M325.312 424.896H174.687C133.619 424.896 100.208 391.484 100.208 350.417C100.208 343.945 105.455 338.698 111.927 338.698H388.073C394.545 338.698 399.792 343.945 399.792 350.417C399.791 391.484 366.38 424.896 325.312 424.896V424.896Z" fill="#46C858"/>
<path d="M399.791 350.416C399.791 343.945 394.545 338.698 388.073 338.698H250V424.895H325.312C366.38 424.896 399.791 391.484 399.791 350.416V350.416Z" fill="#009678"/>
<path d="M250 183.362C236.812 183.362 224.412 178.225 215.084 168.896L191.505 145.317C186.929 140.741 186.929 133.321 191.505 128.745L241.714 78.5359C246.29 73.9594 253.71 73.9594 258.286 78.5359L308.495 128.745C313.072 133.321 313.072 140.741 308.495 145.317L284.916 168.896C275.587 178.225 263.187 183.362 250 183.362Z" fill="#E6FF6D"/>
<path d="M308.495 145.317C313.071 140.741 313.071 133.321 308.495 128.745L258.286 78.536C255.998 76.2477 252.998 75.1031 250 75.1031V183.362C263.187 183.362 275.587 178.224 284.916 168.895L308.495 145.317Z" fill="#9EE341"/>
<path d="M380.272 362.135H119.728C107.324 362.135 96.2443 354.732 91.5029 343.275C86.7615 331.82 89.3599 318.755 98.1232 309.991L116.193 291.922C118.39 289.724 121.371 288.489 124.479 288.489C152.623 288.489 175.52 265.591 175.52 237.448C175.52 209.298 152.629 186.406 124.491 186.406C118.019 186.406 112.76 181.159 112.76 174.688C112.76 150.918 126.933 129.702 148.869 120.613C170.811 111.525 195.836 116.504 212.627 133.295L231.656 152.324C241.769 162.432 258.228 162.433 268.344 152.322L287.371 133.295C304.162 116.503 329.188 111.525 351.128 120.613C373.065 129.702 387.238 150.918 387.238 174.663C387.238 181.134 381.991 186.406 375.519 186.406C347.375 186.406 324.478 209.303 324.478 237.448C324.478 265.592 347.375 288.489 375.519 288.489C378.627 288.489 381.608 289.724 383.805 291.922L401.874 309.99C410.638 318.755 413.236 331.82 408.495 343.275C403.755 354.732 392.676 362.135 380.272 362.135Z" fill="#9EE341"/>
<path d="M408.497 343.276C413.238 331.82 410.64 318.756 401.876 309.991L383.807 291.923C381.609 289.725 378.629 288.49 375.521 288.49C347.376 288.49 324.48 265.592 324.48 237.448C324.48 209.305 347.376 186.407 375.521 186.407C381.993 186.407 387.24 181.135 387.24 174.663C387.24 150.919 373.066 129.703 351.13 120.613C329.19 111.527 304.164 116.504 287.373 133.295L268.345 152.323C263.287 157.378 256.644 159.906 250.001 159.906V362.136H380.273C392.676 362.135 403.755 354.732 408.497 343.276V343.276Z" fill="#46C858"/>
<path d="M275.104 311.927C281.576 311.927 286.823 306.681 286.823 300.209C286.823 293.737 281.576 288.49 275.104 288.49C268.632 288.49 263.385 293.737 263.385 300.209C263.385 306.681 268.632 311.927 275.104 311.927Z" fill="#009678"/>
<path d="M224.896 311.927C231.368 311.927 236.615 306.681 236.615 300.209C236.615 293.737 231.368 288.49 224.896 288.49C218.424 288.49 213.177 293.737 213.177 300.209C213.177 306.681 218.424 311.927 224.896 311.927Z" fill="#46C858"/>
<path d="M196.918 254.643C206.379 214.62 181.603 174.506 141.58 165.045C101.557 155.584 61.4429 180.36 51.9822 220.383C42.5215 260.406 67.2971 300.52 107.32 309.981C147.343 319.442 187.457 294.666 196.918 254.643Z" fill="#F3F3F3"/>
<path d="M428.122 290.119C457.204 261.038 457.204 213.888 428.122 184.806C399.041 155.725 351.891 155.725 322.809 184.806C293.728 213.888 293.728 261.038 322.809 290.119C351.891 319.201 399.041 319.201 428.122 290.119Z" fill="#DFDCDD"/>
<path d="M137.031 249.167C143.503 249.167 148.75 243.92 148.75 237.448C148.75 230.976 143.503 225.729 137.031 225.729C130.559 225.729 125.312 230.976 125.312 237.448C125.312 243.92 130.559 249.167 137.031 249.167Z" fill="#643F35"/>
<path d="M362.969 249.167C369.441 249.167 374.687 243.92 374.687 237.448C374.687 230.976 369.441 225.729 362.969 225.729C356.496 225.729 351.25 230.976 351.25 237.448C351.25 243.92 356.496 249.167 362.969 249.167Z" fill="#3C282D"/>
</g>
<defs>
<linearGradient id="paint0_linear" x1="0" y1="0" x2="500" y2="500" gradientUnits="userSpaceOnUse">
<stop stop-color="#392D39"/>
<stop offset="1" stop-color="#009678"/>
<stop offset="1" stop-color="#009678"/>
</linearGradient>
<clipPath id="clip0">
<rect x="50" y="50" width="400" height="400" fill="white"/>
</clipPath>
</defs>
</svg>
